<?xml version="1.0" encoding="utf-8"?>
<!-- Generator: Adobe Illustrator 16.0.0, SVG Export Plug-In . SVG Version: 6.00 Build 0)  -->
<!DOCTYPE svg PUBLIC "-//W3C//DTD SVG 1.1//EN" "http://www.w3.org/Graphics/SVG/1.1/DTD/svg11.dtd">
<svg version="1.1" id="Layer_1" xmlns="http://www.w3.org/2000/svg" xmlns:xlink="http://www.w3.org/1999/xlink" x="0px" y="0px"
	 width="574px" height="573.165px" viewBox="0 0 574 573.165" enable-background="new 0 0 574 573.165" xml:space="preserve">
<rect x="0.125" fill="#30619C" width="574.208" height="573.165"/>
<path fill="#FFFFFF" d="M123,433.871c0-95.903,0-191.808,0-287.712c0.358-1.436,0.678-2.882,1.082-4.305
	c2.339-8.228,9.094-12.846,18.83-12.847c94.26-0.005,188.519-0.003,282.78-0.003c0.468,0,0.937-0.012,1.403,0.006
	c8.734,0.336,15.231,5.148,17.405,12.885c0.347,1.235,0.701,2.469,1.053,3.703c0,96.278,0,192.557,0,288.836
	c-0.185,0.318-0.461,0.615-0.543,0.959c-2.584,10.891-8.511,15.629-19.617,15.631c-25.286,0.007-50.573-0.036-75.859,0.06
	c-2.693,0.01-3.452-0.736-3.447-3.441c0.085-39.242,0.059-78.484,0.064-117.727c0-0.998,0.095-1.997,0.159-3.268
	c1.34,0,2.442,0,3.544,0c11.426,0,22.852,0.001,34.278-0.002c3.834-0.001,3.76-0.016,4.237-3.807
	c1.402-11.129,2.879-22.249,4.306-33.375c0.495-3.859,0.935-7.725,1.451-12.021c-16.162,0-31.925,0-47.519,0
	c-0.236-0.565-0.369-0.734-0.368-0.903c0.014-11.892-0.34-23.8,0.179-35.67c0.43-9.861,5.604-15.205,14.982-16.868
	c2.75-0.488,5.583-0.654,8.381-0.688c7.679-0.091,15.36-0.12,23.038,0.016c2.364,0.042,3.001-0.716,2.98-3.023
	c-0.106-11.519-0.048-23.039-0.048-34.559c0-6.476,0.021-6.76-6.361-7.253c-14.551-1.125-29.162-2.484-43.703-0.387
	c-19.66,2.836-34.868,12.448-43.893,30.64c-4.83,9.734-6.7,20.212-6.873,30.973c-0.184,11.423-0.045,22.851-0.059,34.277
	c-0.002,1.08-0.096,2.16-0.158,3.446c-1.328,0-2.346,0-3.363,0c-11.894,0-23.788,0.057-35.682-0.048
	c-2.341-0.021-3.025,0.693-3.01,3.017c0.093,14.328,0.111,28.658-0.011,42.987c-0.022,2.635,0.814,3.323,3.354,3.298
	c11.799-0.115,23.601-0.051,35.4-0.05c1.083,0,2.166,0,3.321,0c0,41.61,0,82.78,0,124.19c-1.333,0.068-2.524,0.181-3.716,0.181
	c-35.495,0.009-70.991,0.008-106.486,0.008c-14.048,0-28.097,0.026-42.145-0.011c-9.275-0.021-15.99-4.771-18.283-12.836
	C123.678,436.755,123.359,435.308,123,433.871z"/>
</svg>
